<svg xmlns="http://www.w3.org/2000/svg" viewBox="0 0 65 65"><defs><style>.cls-1{fill:#36465d;}.cls-2{fill:#fff;}</style></defs><title>tumblr-small</title><g id="Layer_2" data-name="Layer 2"><g id="Facebook"><circle id="Primary" class="cls-1" cx="32.5" cy="32.5" r="32.5"/><g id="_14px_Padding" data-name=" 14px Padding"><path id="Icon" class="cls-2" d="M28.85,15h5.31v8.81h6.57v6H34.17V40.58h.14l.14,1.12a5.35,5.35,0,0,1,.56,1,1.17,1.17,0,0,1,.56.28v.14l.7.14v.14h.83l.14.14,1.54-.14v-.14h.7V43.1l1-.14,1.12,3.64A3.61,3.61,0,0,1,42,48.13l-2,1.12h-.42v.14H39.2v.14h-.56v.14h-.56v.14h-1a8.93,8.93,0,0,1-4.9-.42l-.84-.14v-.14h-.28V49l-.84-.28-.14-.28h-.28l-.14-.28H29.4l-1-1.12-.55-.42v-.28l-.28-.14V45.9l-.28-.14L27,44.92H26.9v-.28h-.14v-.42h-.14V43.8h-.14v-.42h-.14v-.56H26.2v-.7h-.14V29.82H22V24.65l1.68-.7.14-.28h.28v-.14l.42-.14.14-.28h.28l.56-.7,1-.84A13.65,13.65,0,0,0,28.85,15Z"/></g></g></g></svg>