<svg id="Layer_1" data-name="Layer 1" xmlns="http://www.w3.org/2000/svg" viewBox="0 0 100 100"><defs><style>.cls-1{fill:#e5ac73;}.cls-2{fill:#fff;}.cls-3{fill:#424242;}</style></defs><title>Blop-Orange</title><path class="cls-1" d="M84.47,67.35c5.67,7.1-2.6,13.75-14,12.16-5.78-.83-11.86-3.8-19.18-3.8-8.14,0-16,3-22.37,3.8-10.56,1.21-19-6.82-13.4-12.71C27,54.69,13.06,45,16.07,37.69c2.12-5.17,12.16-4.07,16.47-5.06C38.91,31.2,43.1,20.26,51.25,20.26c7.32,0,10.21,11.39,16,12.21,4.9.72,14-.44,16.47,5.39C86.78,45.23,74,54.2,84.47,67.35Z"/><g id="eye"><g id="Background-3"><g id="Ellipse_2" data-name="Ellipse 2"><ellipse class="cls-2" cx="61.64" cy="47.78" rx="9.21" ry="9.62" transform="translate(-1.23 1.62) rotate(-1.49)"/></g></g><g id="Foreground"><g id="Ellipse_3" data-name="Ellipse 3"><ellipse class="cls-3" cx="58.39" cy="45.12" rx="4.13" ry="4.9" transform="translate(-1.16 1.54) rotate(-1.49)"/></g></g></g><g id="eye-2" data-name="eye"><g id="Background-3-2" data-name="Background-3"><g id="Ellipse_2-2" data-name="Ellipse 2"><ellipse class="cls-2" cx="38.63" cy="47.76" rx="9.62" ry="9.21" transform="translate(-10.12 85.14) rotate(-88.51)"/></g></g><g id="Foreground-2" data-name="Foreground"><g id="Ellipse_3-2" data-name="Ellipse 3"><ellipse class="cls-3" cx="41.89" cy="45.1" rx="4.9" ry="4.13" transform="translate(-4.29 85.8) rotate(-88.51)"/></g></g></g></svg>