<svg xmlns="http://www.w3.org/2000/svg" xmlns:xlink="http://www.w3.org/1999/xlink" viewBox="0 0 124.07 51.34"><defs><style>.cls-1{fill:none;}.cls-2{fill:#f2f2f2;}.cls-3{fill:#f2a481;}.cls-4{clip-path:url(#clip-path);}.cls-5{fill:#fff;}.cls-6{fill:#424242;}.cls-7{fill:#ff7b8e;}.cls-8{fill:#81f2a4;}.cls-9{fill:#62d4ff;}.cls-10{fill:#ffff9a;}.cls-11{fill:#53a9ff;}</style><clipPath id="clip-path"><path class="cls-1" d="M113.25,21.84c.37,2.47-2.51,2.92-5,1-1.26-1-2.3-2.54-4-3.55-1.94-1.12-4.23-1.48-5.85-2.18-2.68-1.17-3.59-4.24-1.44-4.87,4.41-1.3,2.43-5.52,4.15-6.85,1.22-.94,3.46.71,4.62,1.06C107.45,7,110,5,111.89,6.08c1.74,1,.86,4.12,2.13,5.11,1.07.85,3.39,1.82,3.18,3.55C116.84,16.89,112.56,17.26,113.25,21.84Z"/></clipPath></defs><title>AAAAA</title><g id="Layer_2" data-name="Layer 2"><g id="Layer_1-2" data-name="Layer 1"><g id="Layer_2-2" data-name="Layer 2"><g id="Layer_1-2-2" data-name="Layer 1-2"><g id="Layer_2-2-2" data-name="Layer 2-2"><g id="Layer_1-2-2-2" data-name="Layer 1-2-2"><path class="cls-2" d="M18.59,13.54h2.29V27.89H21a5.88,5.88,0,0,1,1.34-1.59A8.63,8.63,0,0,1,24,25.19a8.8,8.8,0,0,1,2-.65,10,10,0,0,1,2-.21,9.79,9.79,0,0,1,3.73.69,8.7,8.7,0,0,1,4.88,4.88,10.44,10.44,0,0,1,0,7.46,8.7,8.7,0,0,1-4.88,4.88,9.79,9.79,0,0,1-3.73.69,10.08,10.08,0,0,1-2-.21,8.8,8.8,0,0,1-2-.65A7.67,7.67,0,0,1,22.26,41,5.88,5.88,0,0,1,21,39.37h-.08v3.1H18.59Zm2.07,20.09a6.92,6.92,0,0,0,.58,2.81,7.34,7.34,0,0,0,1.57,2.29,7.46,7.46,0,0,0,2.33,1.55,7.24,7.24,0,0,0,2.91.58,7.08,7.08,0,0,0,3-.57,6.8,6.8,0,0,0,2.22-1.55,6.61,6.61,0,0,0,1.4-2.29,8.46,8.46,0,0,0,0-5.63A6.55,6.55,0,0,0,31,27a7.08,7.08,0,0,0-3-.61,7.24,7.24,0,0,0-2.91.58,7.51,7.51,0,0,0-2.33,1.55,7.18,7.18,0,0,0-1.57,2.29A6.92,6.92,0,0,0,20.66,33.63Z"/><path class="cls-2" d="M42.85,13.54h2.29V42.47H42.85Z"/><path class="cls-2" d="M67.26,39.15A7.76,7.76,0,0,1,64,42a10.53,10.53,0,0,1-4.34.88A9.36,9.36,0,0,1,56,42.2a8.27,8.27,0,0,1-4.65-4.88,10.66,10.66,0,0,1-.63-3.77,10.12,10.12,0,0,1,.65-3.67A8.89,8.89,0,0,1,53.14,27a8.58,8.58,0,0,1,2.8-2,8.72,8.72,0,0,1,3.56-.71,8.56,8.56,0,0,1,3.58.71,7.78,7.78,0,0,1,4.19,4.54,8.83,8.83,0,0,1,.54,3v1.66H53a8,8,0,0,0,.28,1.86,6.52,6.52,0,0,0,1,2.2,6.7,6.7,0,0,0,2,1.84,6.38,6.38,0,0,0,3.31.76A7.48,7.48,0,0,0,63.06,40a6.08,6.08,0,0,0,2.52-2.29Zm-1.76-7a5.18,5.18,0,0,0-.5-2.23,5.92,5.92,0,0,0-1.3-1.81,6.3,6.3,0,0,0-2-1.25,6.37,6.37,0,0,0-2.39-.46,5.86,5.86,0,0,0-3.12.76,6.92,6.92,0,0,0-2,1.76,6.79,6.79,0,0,0-1,1.94,4.84,4.84,0,0,0-.3,1.28Z"/><path class="cls-2" d="M72.93,29.77V28.56a11.32,11.32,0,0,0-.06-1.44c-.06-.44,0-.93-.06-1.36a5.47,5.47,0,0,1,0-1H75c0,.66,0,1.3.06,1.92a6.13,6.13,0,0,0,.09,1.19,7.79,7.79,0,0,1,2.26-2.56,5.61,5.61,0,0,1,3.37-1,3.93,3.93,0,0,1,.67.06l.67.13-.26,2.26a2.69,2.69,0,0,0-.88-.15,6.39,6.39,0,0,0-2.59.48,4.81,4.81,0,0,0-1.79,1.32,5.43,5.43,0,0,0-1,2,8.42,8.42,0,0,0-.34,2.43v9.64H72.95V29.77Z"/><path class="cls-2" d="M85.17,24.79h2.29v3.1h.08a5.88,5.88,0,0,1,1.34-1.59,8.63,8.63,0,0,1,1.74-1.11,8.8,8.8,0,0,1,2-.65,10,10,0,0,1,2-.21,9.79,9.79,0,0,1,3.73.69,8.7,8.7,0,0,1,4.88,4.88,10.44,10.44,0,0,1,0,7.46,8.7,8.7,0,0,1-4.88,4.88,9.79,9.79,0,0,1-3.73.69,10.08,10.08,0,0,1-2-.21,8.8,8.8,0,0,1-2-.65A7.67,7.67,0,0,1,88.88,41a5.88,5.88,0,0,1-1.34-1.59h-.08V51.2H85.17Zm2.07,8.84a6.92,6.92,0,0,0,.58,2.81,7.34,7.34,0,0,0,1.57,2.29,7.46,7.46,0,0,0,2.33,1.55,7.24,7.24,0,0,0,2.91.58,7.08,7.08,0,0,0,2.91-.58,6.8,6.8,0,0,0,2.22-1.55,6.61,6.61,0,0,0,1.4-2.29,8.46,8.46,0,0,0,0-5.63A6.55,6.55,0,0,0,97.53,27a7.08,7.08,0,0,0-2.91-.58,7.24,7.24,0,0,0-2.91.58,7.51,7.51,0,0,0-2.33,1.55,7.18,7.18,0,0,0-1.57,2.29A7.08,7.08,0,0,0,87.24,33.63Z"/><path class="cls-2" d="M109.13,40.86a1.84,1.84,0,1,1,.54,1.3A1.78,1.78,0,0,1,109.13,40.86Z"/></g></g><g id="Blop"><path class="cls-3" d="M113.25,21.84c.37,2.47-2.51,2.92-5,1-1.26-1-2.3-2.54-4-3.55-1.94-1.12-4.23-1.48-5.85-2.18-2.68-1.17-3.59-4.24-1.44-4.87,4.41-1.3,2.43-5.52,4.15-6.85,1.22-.94,3.46.71,4.62,1.06C107.45,7,110,5,111.89,6.08c1.74,1,.86,4.12,2.13,5.11,1.07.85,3.39,1.82,3.18,3.55C116.84,16.89,112.56,17.26,113.25,21.84Z"/><g class="cls-4"><rect class="cls-3" x="93.21" y="8.27" width="22.36" height="4.41" transform="translate(0.83 27.3) rotate(-14.96)"/><rect class="cls-3" x="97.03" y="16.27" width="22.36" height="4.41" transform="translate(-1.1 28.56) rotate(-14.96)"/><rect class="cls-3" x="99.9" y="20.03" width="22.36" height="4.41" transform="translate(-1.97 29.43) rotate(-14.96)"/><rect class="cls-3" x="91.84" y="4.08" width="22.36" height="4.41" transform="translate(1.87 26.81) rotate(-14.96)"/><rect class="cls-3" x="94.96" y="12.28" width="22.36" height="4.41" transform="translate(-0.14 27.89) rotate(-14.96)"/><rect class="cls-3" x="95.71" y="2.93" width="25.79" height="23.28" transform="matrix(0.97, -0.26, 0.26, 0.97, -0.08, 28.53)"/></g><g id="eye"><g id="Background-3"><g id="Ellipse_2" data-name="Ellipse 2"><ellipse class="cls-5" cx="111" cy="14.02" rx="3.03" ry="2.9" transform="translate(47.89 106.41) rotate(-62.86)"/></g></g><g id="Foreground"><g id="Ellipse_3" data-name="Ellipse 3"><ellipse class="cls-6" cx="110.51" cy="12.79" rx="1.54" ry="1.3" transform="translate(48.72 105.3) rotate(-62.86)"/></g></g></g><g id="eye-2"><g id="Background-3-2"><g id="Ellipse_2-2" data-name="Ellipse 2-2"><ellipse class="cls-5" cx="104.66" cy="10.55" rx="3.03" ry="2.9" transform="translate(43 95.78) rotate(-59.87)"/></g></g><g id="Foreground-2"><g id="Ellipse_3-2" data-name="Ellipse 3-2"><ellipse class="cls-6" cx="105.97" cy="10.31" rx="1.54" ry="1.3" transform="translate(43.86 96.78) rotate(-59.87)"/></g></g></g></g><g id="Squares"><rect class="cls-7" y="42.61" width="8.73" height="8.73"/><rect class="cls-8" y="22.84" width="8.73" height="8.73"/><rect class="cls-9" y="32.72" width="8.73" height="8.73"/><rect class="cls-10" y="12.95" width="8.73" height="8.73"/><rect class="cls-11" y="3.06" width="8.73" height="8.73"/></g></g></g></g></g></svg>
