<svg xmlns="http://www.w3.org/2000/svg" viewBox="0 0 123.03 100.8"><defs><style>.cls-1{fill:#91cd93;}.cls-2{fill:#fff;}.cls-3{fill:#424242;}.cls-4{fill:#7bbaff;}</style></defs><title>sadblop</title><g id="Layer_2" data-name="Layer 2"><g id="Blerp_Logo" data-name="Blerp Logo"><path class="cls-1" d="M119.93,79.79c9.6,12-4.4,23.3-23.8,20.6C86.33,99,76,94,63.63,94c-13.8,0-27.1,5.13-37.9,6.43C7.83,102.45-6.47,88.84,3,78.86c19.5-20.51-4.1-36.91,1-49.31,3.6-8.76,20.6-6.9,27.9-8.58,10.8-2.42,17.9-21,31.7-21C76,0,80.93,19.3,90.73,20.69c8.3,1.21,23.7-.75,27.9,9.14C123.83,42.32,102.13,57.52,119.93,79.79Z"/><g id="eye"><g id="Background-3"><g id="Ellipse_2" data-name="Ellipse 2"><path class="cls-2" d="M26.66,46.2c.23-9,16-15.89,16-15.89,8.61.22,15.4,7.7,15.17,16.7s-7.41,16.11-16,15.89S26.42,55.2,26.66,46.2Z"/></g></g><g id="Foreground"><g id="Ellipse_3" data-name="Ellipse 3"><ellipse class="cls-3" cx="45.46" cy="52.72" rx="8.3" ry="7" transform="translate(-8.42 96.79) rotate(-88.51)"/></g></g></g><g id="eye-2" data-name="eye"><g id="Background-3-2" data-name="Background-3"><g id="Ellipse_2-2" data-name="Ellipse 2"><path class="cls-2" d="M95.56,46.2c-.23-9-16-15.89-16-15.89-8.61.22-15.4,7.7-15.17,16.7s7.41,16.11,16,15.89S95.79,55.2,95.56,46.2Z"/></g></g><g id="Foreground-2" data-name="Foreground"><g id="Ellipse_3-2" data-name="Ellipse 3"><ellipse class="cls-3" cx="76.76" cy="52.72" rx="7" ry="8.3" transform="translate(-1.35 2.02) rotate(-1.49)"/></g></g></g><path class="cls-4" d="M91.82,55.66s-8.9,7.4-8,18.91,10.3,8.95,10.3,8.95,4.63-.39,6.73-8.59S91.82,55.66,91.82,55.66Z"/><path class="cls-3" d="M49.22,78.69S48.42,67,61.52,67s12.3,11.7,12.3,11.7"/></g></g></svg>