<svg xmlns="http://www.w3.org/2000/svg" viewBox="0 0 144.97 132.95"><defs><style>.cls-1{fill:#fff;}</style></defs><title>white-blip-outline</title><g id="Layer_2" data-name="Layer 2"><g id="Layer_1-2" data-name="Layer 1"><path class="cls-1" d="M114.91,119.26c.22,16.33-18.48,18.52-34.49,4-8.07-7.36-14.33-18.34-25.64-26C42.2,88.67,26.89,85.09,16.24,79.58-1.35,70.34-5.94,49.05,8.91,45.86,39.41,39.26,28.08,9.66,40.43,1.52,49.15-4.24,63.49,8,71.19,11c11.35,4.49,29.34-8,41.92.55,11.31,7.7,3.8,28.33,11.86,35.69,6.82,6.26,22.07,14,19.77,25.65C141.72,87.52,113.83,87.51,114.91,119.26Z"/></g></g></svg>