<svg xmlns="http://www.w3.org/2000/svg" viewBox="0 0 42.05 42.05"><defs><style>.cls-1{fill:#fff;}</style></defs><title>btn-blip</title><g id="Layer_2" data-name="Layer 2"><g id="Home"><path class="cls-1" d="M21,42.05a21,21,0,1,1,21-21A21,21,0,0,1,21,42.05ZM21,4A17,17,0,1,0,38,21,17,17,0,0,0,21,4Z"/><path class="cls-1" d="M27.54,30.36c0,2.51-2.84,2.84-5.29.62-1.24-1.13-2.2-2.82-3.94-4-1.93-1.32-4.28-1.86-5.92-2.71-2.7-1.42-3.4-4.69-1.12-5.18,4.68-1,2.94-5.56,4.84-6.81,1.33-.88,3.54,1,4.72,1.46,1.74.69,4.5-1.23,6.43.09,1.74,1.18.59,4.35,1.83,5.48,1,1,3.38,2.15,3,3.93C31.66,25.49,27.38,25.49,27.54,30.36Z"/></g></g></svg>